<?xml version="1.0" encoding="UTF-8" standalone="no"?>
<!DOCTYPE svg PUBLIC "-//W3C//DTD SVG 1.1//EN"
 "http://www.w3.org/Graphics/SVG/1.1/DTD/svg11.dtd">
<!-- Generated by graphviz version 2.40.1 (20161225.0304)
 -->
<!-- Title: dependencies Pages: 1 -->
<svg width="551pt" height="284pt"
 viewBox="0.00 0.00 551.00 284.00" xmlns="http://www.w3.org/2000/svg" xmlns:xlink="http://www.w3.org/1999/xlink">
<g id="graph0" class="graph" transform="scale(1 1) rotate(0) translate(4 280)">
<title>dependencies</title>
<polygon fill="#ffffff" stroke="transparent" points="-4,4 -4,-280 547,-280 547,4 -4,4"/>
<text text-anchor="start" x="250.5091" y="-42.4" font-family="sans-serif" font-weight="bold" font-size="14.00" fill="#000000">Legend</text>
<polygon fill="#ffffb3" stroke="transparent" points="37.5,-10 37.5,-30 57.5,-30 57.5,-10 37.5,-10"/>
<text text-anchor="start" x="61.129" y="-15.4" font-family="sans-serif" font-size="14.00" fill="#000000"> &#160;Declarations</text>
<polygon fill="#8dd3c7" stroke="transparent" points="150.5,-10 150.5,-30 170.5,-30 170.5,-10 150.5,-10"/>
<text text-anchor="start" x="174.2251" y="-15.4" font-family="sans-serif" font-size="14.00" fill="#000000"> &#160;Module</text>
<polygon fill="#80b1d3" stroke="transparent" points="236.5,-10 236.5,-30 256.5,-30 256.5,-10 236.5,-10"/>
<text text-anchor="start" x="260.2812" y="-15.4" font-family="sans-serif" font-size="14.00" fill="#000000"> &#160;Bootstrap</text>
<polygon fill="#fdb462" stroke="transparent" points="333.5,-10 333.5,-30 353.5,-30 353.5,-10 333.5,-10"/>
<text text-anchor="start" x="357.1732" y="-15.4" font-family="sans-serif" font-size="14.00" fill="#000000"> &#160;Providers</text>
<polygon fill="#fb8072" stroke="transparent" points="429.5,-10 429.5,-30 449.5,-30 449.5,-10 429.5,-10"/>
<text text-anchor="start" x="453.2258" y="-15.4" font-family="sans-serif" font-size="14.00" fill="#000000"> &#160;Exports</text>
<g id="clust1" class="cluster">
<title>cluster_UserModule</title>
<polygon fill="none" stroke="#000000" stroke-dasharray="1,5" points="8,-70 8,-268 535,-268 535,-70 8,-70"/>
</g>
<g id="clust4" class="cluster">
<title>cluster_UserModule_exports</title>
<polygon fill="none" stroke="#000000" points="16,-208 16,-260 527,-260 527,-208 16,-208"/>
</g>
<g id="clust6" class="cluster">
<title>cluster_UserModule_providers</title>
<polygon fill="none" stroke="#000000" points="274,-78 274,-130 406,-130 406,-78 274,-78"/>
</g>
<!-- UserService  -->
<g id="node1" class="node">
<title>UserService </title>
<polygon fill="#fb8072" stroke="#000000" points="518.9041,-252 431.0959,-252 431.0959,-216 518.9041,-216 518.9041,-252"/>
<text text-anchor="middle" x="475" y="-229.8" font-family="Times,serif" font-size="14.00" fill="#000000">UserService </text>
</g>
<!-- { provide: UserRepository, useClass: UserInMemoryRepository }  -->
<g id="node2" class="node">
<title>{ provide: UserRepository, useClass: UserInMemoryRepository } </title>
<polygon fill="#fb8072" stroke="#000000" points="413.5734,-252 24.4266,-252 24.4266,-216 413.5734,-216 413.5734,-252"/>
<text text-anchor="middle" x="219" y="-229.8" font-family="Times,serif" font-size="14.00" fill="#000000">{ provide: UserRepository, useClass: UserInMemoryRepository } </text>
</g>
<!-- UserModule -->
<g id="node3" class="node">
<title>UserModule</title>
<polygon fill="#8dd3c7" stroke="#000000" points="382.9762,-187 379.9762,-191 358.9762,-191 355.9762,-187 297.0238,-187 297.0238,-151 382.9762,-151 382.9762,-187"/>
<text text-anchor="middle" x="340" y="-164.8" font-family="Times,serif" font-size="14.00" fill="#000000">UserModule</text>
</g>
<!-- UserModule&#45;&gt;UserService  -->
<g id="edge1" class="edge">
<title>UserModule&#45;&gt;UserService </title>
<path fill="none" stroke="#000000" stroke-dasharray="5,2" d="M383.086,-169C422.5947,-169 475,-169 475,-169 475,-169 475,-205.8939 475,-205.8939"/>
<polygon fill="#000000" stroke="#000000" points="471.5001,-205.8938 475,-215.8939 478.5001,-205.8939 471.5001,-205.8938"/>
</g>
<!-- UserModule&#45;&gt;{ provide: UserRepository, useClass: UserInMemoryRepository }  -->
<g id="edge2" class="edge">
<title>UserModule&#45;&gt;{ provide: UserRepository, useClass: UserInMemoryRepository } </title>
<path fill="none" stroke="#000000" stroke-dasharray="5,2" d="M340,-187.1061C340,-187.1061 340,-205.991 340,-205.991"/>
<polygon fill="#000000" stroke="#000000" points="336.5001,-205.9909 340,-215.991 343.5001,-205.991 336.5001,-205.9909"/>
</g>
<!-- UserService -->
<g id="node4" class="node">
<title>UserService</title>
<ellipse fill="#fdb462" stroke="#000000" cx="340" cy="-104" rx="58.4415" ry="18"/>
<text text-anchor="middle" x="340" y="-99.8" font-family="Times,serif" font-size="14.00" fill="#000000">UserService</text>
</g>
<!-- UserService&#45;&gt;UserModule -->
<g id="edge3" class="edge">
<title>UserService&#45;&gt;UserModule</title>
<path fill="none" stroke="#000000" d="M340,-122.1061C340,-122.1061 340,-140.991 340,-140.991"/>
<polygon fill="#000000" stroke="#000000" points="336.5001,-140.9909 340,-150.991 343.5001,-140.991 336.5001,-140.9909"/>
</g>
</g>
</svg>
