<?xml version="1.0" encoding="UTF-8" standalone="no"?>
<!DOCTYPE svg PUBLIC "-//W3C//DTD SVG 1.1//EN"
 "http://www.w3.org/Graphics/SVG/1.1/DTD/svg11.dtd">
<!-- Generated by graphviz version 2.47.3 (20210619.1520)
 -->
<!-- Title: dependencies Pages: 1 -->
<svg width="551pt" height="247pt"
 viewBox="0.00 0.00 551.00 246.80" xmlns="http://www.w3.org/2000/svg" xmlns:xlink="http://www.w3.org/1999/xlink">
<g id="graph0" class="graph" transform="scale(1 1) rotate(0) translate(4 242.8)">
<title>dependencies</title>
<polygon fill="white" stroke="transparent" points="-4,4 -4,-242.8 547,-242.8 547,4 -4,4"/>
<text text-anchor="middle" x="271.5" y="-8.2" font-family="sans-serif" font-size="14.00">dependencies</text>
<g id="clust1" class="cluster">
<title>cluster_UserModule</title>
<polygon fill="none" stroke="black" stroke-dasharray="1,5" points="8,-32.8 8,-230.8 535,-230.8 535,-32.8 8,-32.8"/>
</g>
<g id="clust6" class="cluster">
<title>cluster_UserModule_providers</title>
<polygon fill="none" stroke="black" points="274,-40.8 274,-92.8 406,-92.8 406,-40.8 274,-40.8"/>
</g>
<g id="clust4" class="cluster">
<title>cluster_UserModule_exports</title>
<polygon fill="none" stroke="black" points="16,-170.8 16,-222.8 527,-222.8 527,-170.8 16,-170.8"/>
</g>
<!-- UserService  -->
<g id="node1" class="node">
<title>UserService </title>
<polygon fill="#fb8072" stroke="black" points="518.9,-214.8 431.1,-214.8 431.1,-178.8 518.9,-178.8 518.9,-214.8"/>
<text text-anchor="middle" x="475" y="-192.6" font-family="Times,serif" font-size="14.00">UserService </text>
</g>
<!-- { provide: UserRepository, useClass: UserInMemoryRepository }  -->
<g id="node2" class="node">
<title>{ provide: UserRepository, useClass: UserInMemoryRepository } </title>
<polygon fill="#fb8072" stroke="black" points="413.57,-214.8 24.43,-214.8 24.43,-178.8 413.57,-178.8 413.57,-214.8"/>
<text text-anchor="middle" x="219" y="-192.6" font-family="Times,serif" font-size="14.00">{ provide: UserRepository, useClass: UserInMemoryRepository } </text>
</g>
<!-- UserModule -->
<g id="node3" class="node">
<title>UserModule</title>
<polygon fill="#8dd3c7" stroke="black" points="382.98,-149.8 379.98,-153.8 358.98,-153.8 355.98,-149.8 297.02,-149.8 297.02,-113.8 382.98,-113.8 382.98,-149.8"/>
<text text-anchor="middle" x="340" y="-127.6" font-family="Times,serif" font-size="14.00">UserModule</text>
</g>
<!-- UserModule&#45;&gt;UserService  -->
<g id="edge1" class="edge">
<title>UserModule&#45;&gt;UserService </title>
<path fill="none" stroke="black" stroke-dasharray="5,2" d="M383.09,-131.8C422.59,-131.8 475,-131.8 475,-131.8 475,-131.8 475,-168.69 475,-168.69"/>
<polygon fill="black" stroke="black" points="471.5,-168.69 475,-178.69 478.5,-168.69 471.5,-168.69"/>
</g>
<!-- UserModule&#45;&gt;{ provide: UserRepository, useClass: UserInMemoryRepository }  -->
<g id="edge2" class="edge">
<title>UserModule&#45;&gt;{ provide: UserRepository, useClass: UserInMemoryRepository } </title>
<path fill="none" stroke="black" stroke-dasharray="5,2" d="M340,-149.91C340,-149.91 340,-168.79 340,-168.79"/>
<polygon fill="black" stroke="black" points="336.5,-168.79 340,-178.79 343.5,-168.79 336.5,-168.79"/>
</g>
<!-- UserService -->
<g id="node4" class="node">
<title>UserService</title>
<ellipse fill="#fdb462" stroke="black" cx="340" cy="-66.8" rx="58.44" ry="18"/>
<text text-anchor="middle" x="340" y="-62.6" font-family="Times,serif" font-size="14.00">UserService</text>
</g>
<!-- UserService&#45;&gt;UserModule -->
<g id="edge3" class="edge">
<title>UserService&#45;&gt;UserModule</title>
<path fill="none" stroke="black" d="M340,-84.91C340,-84.91 340,-103.79 340,-103.79"/>
<polygon fill="black" stroke="black" points="336.5,-103.79 340,-113.79 343.5,-103.79 336.5,-103.79"/>
</g>
</g>
</svg>
