<?xml version="1.0" encoding="UTF-8" standalone="no"?>
<!DOCTYPE svg PUBLIC "-//W3C//DTD SVG 1.1//EN"
 "http://www.w3.org/Graphics/SVG/1.1/DTD/svg11.dtd">
<!-- Generated by graphviz version 2.40.1 (20161225.0304)
 -->
<!-- Title: dependencies Pages: 1 -->
<svg width="849pt" height="284pt"
 viewBox="0.00 0.00 849.00 284.00" xmlns="http://www.w3.org/2000/svg" xmlns:xlink="http://www.w3.org/1999/xlink">
<g id="graph0" class="graph" transform="scale(1 1) rotate(0) translate(4 280)">
<title>dependencies</title>
<polygon fill="#ffffff" stroke="transparent" points="-4,4 -4,-280 845,-280 845,4 -4,4"/>
<text text-anchor="start" x="399.5091" y="-42.4" font-family="sans-serif" font-weight="bold" font-size="14.00" fill="#000000">Legend</text>
<polygon fill="#ffffb3" stroke="transparent" points="186.5,-10 186.5,-30 206.5,-30 206.5,-10 186.5,-10"/>
<text text-anchor="start" x="210.129" y="-15.4" font-family="sans-serif" font-size="14.00" fill="#000000"> &#160;Declarations</text>
<polygon fill="#8dd3c7" stroke="transparent" points="299.5,-10 299.5,-30 319.5,-30 319.5,-10 299.5,-10"/>
<text text-anchor="start" x="323.2251" y="-15.4" font-family="sans-serif" font-size="14.00" fill="#000000"> &#160;Module</text>
<polygon fill="#80b1d3" stroke="transparent" points="385.5,-10 385.5,-30 405.5,-30 405.5,-10 385.5,-10"/>
<text text-anchor="start" x="409.2812" y="-15.4" font-family="sans-serif" font-size="14.00" fill="#000000"> &#160;Bootstrap</text>
<polygon fill="#fdb462" stroke="transparent" points="482.5,-10 482.5,-30 502.5,-30 502.5,-10 482.5,-10"/>
<text text-anchor="start" x="506.1732" y="-15.4" font-family="sans-serif" font-size="14.00" fill="#000000"> &#160;Providers</text>
<polygon fill="#fb8072" stroke="transparent" points="578.5,-10 578.5,-30 598.5,-30 598.5,-10 578.5,-10"/>
<text text-anchor="start" x="602.2258" y="-15.4" font-family="sans-serif" font-size="14.00" fill="#000000"> &#160;Exports</text>
<g id="clust1" class="cluster">
<title>cluster_AuthModule</title>
<polygon fill="none" stroke="#000000" stroke-dasharray="1,5" points="8,-70 8,-268 833,-268 833,-70 8,-70"/>
</g>
<g id="clust3" class="cluster">
<title>cluster_AuthModule_imports</title>
<polygon fill="none" stroke="#000000" points="723,-78 723,-130 825,-130 825,-78 723,-78"/>
</g>
<g id="clust4" class="cluster">
<title>cluster_AuthModule_exports</title>
<polygon fill="none" stroke="#000000" points="380,-208 380,-260 486,-260 486,-208 380,-208"/>
</g>
<g id="clust6" class="cluster">
<title>cluster_AuthModule_providers</title>
<polygon fill="none" stroke="#000000" points="16,-78 16,-130 715,-130 715,-78 16,-78"/>
</g>
<!-- UserModule -->
<g id="node1" class="node">
<title>UserModule</title>
<polygon fill="#8dd3c7" stroke="#000000" points="816.9762,-122 813.9762,-126 792.9762,-126 789.9762,-122 731.0238,-122 731.0238,-86 816.9762,-86 816.9762,-122"/>
<text text-anchor="middle" x="774" y="-99.8" font-family="Times,serif" font-size="14.00" fill="#000000">UserModule</text>
</g>
<!-- AuthModule -->
<g id="node2" class="node">
<title>AuthModule</title>
<polygon fill="#8dd3c7" stroke="#000000" points="476.5482,-187 473.5482,-191 452.5482,-191 449.5482,-187 389.4518,-187 389.4518,-151 476.5482,-151 476.5482,-187"/>
<text text-anchor="middle" x="433" y="-164.8" font-family="Times,serif" font-size="14.00" fill="#000000">AuthModule</text>
</g>
<!-- UserModule&#45;&gt;AuthModule -->
<g id="edge1" class="edge">
<title>UserModule&#45;&gt;AuthModule</title>
<path fill="none" stroke="#000000" d="M774,-122.2843C774,-143.3211 774,-175 774,-175 774,-175 486.8817,-175 486.8817,-175"/>
<polygon fill="#000000" stroke="#000000" points="486.8817,-171.5001 476.8817,-175 486.8817,-178.5001 486.8817,-171.5001"/>
</g>
<!-- AuthService  -->
<g id="node3" class="node">
<title>AuthService </title>
<polygon fill="#fb8072" stroke="#000000" points="477.9761,-252 388.0239,-252 388.0239,-216 477.9761,-216 477.9761,-252"/>
<text text-anchor="middle" x="433" y="-229.8" font-family="Times,serif" font-size="14.00" fill="#000000">AuthService </text>
</g>
<!-- AuthModule&#45;&gt;AuthService  -->
<g id="edge2" class="edge">
<title>AuthModule&#45;&gt;AuthService </title>
<path fill="none" stroke="#000000" stroke-dasharray="5,2" d="M433,-187.1061C433,-187.1061 433,-205.991 433,-205.991"/>
<polygon fill="#000000" stroke="#000000" points="429.5001,-205.9909 433,-215.991 436.5001,-205.991 429.5001,-205.9909"/>
</g>
<!-- AuthService -->
<g id="node4" class="node">
<title>AuthService</title>
<ellipse fill="#fdb462" stroke="#000000" cx="648" cy="-104" rx="59.1083" ry="18"/>
<text text-anchor="middle" x="648" y="-99.8" font-family="Times,serif" font-size="14.00" fill="#000000">AuthService</text>
</g>
<!-- AuthService&#45;&gt;AuthModule -->
<g id="edge3" class="edge">
<title>AuthService&#45;&gt;AuthModule</title>
<path fill="none" stroke="#000000" d="M648,-122.0225C648,-139.3734 648,-163 648,-163 648,-163 486.7676,-163 486.7676,-163"/>
<polygon fill="#000000" stroke="#000000" points="486.7676,-159.5001 476.7676,-163 486.7676,-166.5001 486.7676,-159.5001"/>
</g>
<!-- CryptoService -->
<g id="node5" class="node">
<title>CryptoService</title>
<ellipse fill="#fdb462" stroke="#000000" cx="504" cy="-104" rx="66.6325" ry="18"/>
<text text-anchor="middle" x="504" y="-99.8" font-family="Times,serif" font-size="14.00" fill="#000000">CryptoService</text>
</g>
<!-- CryptoService&#45;&gt;AuthModule -->
<g id="edge4" class="edge">
<title>CryptoService&#45;&gt;AuthModule</title>
<path fill="none" stroke="#000000" d="M456.9788,-116.8419C456.9788,-116.8419 456.9788,-140.5231 456.9788,-140.5231"/>
<polygon fill="#000000" stroke="#000000" points="453.4789,-140.523 456.9788,-150.5231 460.4789,-140.5231 453.4789,-140.523"/>
</g>
<!-- JwtStrategy -->
<g id="node6" class="node">
<title>JwtStrategy</title>
<ellipse fill="#fdb462" stroke="#000000" cx="363" cy="-104" rx="56.7561" ry="18"/>
<text text-anchor="middle" x="363" y="-99.8" font-family="Times,serif" font-size="14.00" fill="#000000">JwtStrategy</text>
</g>
<!-- JwtStrategy&#45;&gt;AuthModule -->
<g id="edge5" class="edge">
<title>JwtStrategy&#45;&gt;AuthModule</title>
<path fill="none" stroke="#000000" d="M404.4272,-116.5327C404.4272,-116.5327 404.4272,-140.8507 404.4272,-140.8507"/>
<polygon fill="#000000" stroke="#000000" points="400.9273,-140.8506 404.4272,-150.8507 407.9273,-140.8507 400.9273,-140.8506"/>
</g>
<!-- LocalStrategy -->
<g id="node7" class="node">
<title>LocalStrategy</title>
<ellipse fill="#fdb462" stroke="#000000" cx="223" cy="-104" rx="65.4053" ry="18"/>
<text text-anchor="middle" x="223" y="-99.8" font-family="Times,serif" font-size="14.00" fill="#000000">LocalStrategy</text>
</g>
<!-- LocalStrategy&#45;&gt;AuthModule -->
<g id="edge6" class="edge">
<title>LocalStrategy&#45;&gt;AuthModule</title>
<path fill="none" stroke="#000000" d="M223,-122.0225C223,-139.3734 223,-163 223,-163 223,-163 379.2327,-163 379.2327,-163"/>
<polygon fill="#000000" stroke="#000000" points="379.2328,-166.5001 389.2327,-163 379.2327,-159.5001 379.2328,-166.5001"/>
</g>
<!-- UserService -->
<g id="node8" class="node">
<title>UserService</title>
<ellipse fill="#fdb462" stroke="#000000" cx="82" cy="-104" rx="58.4415" ry="18"/>
<text text-anchor="middle" x="82" y="-99.8" font-family="Times,serif" font-size="14.00" fill="#000000">UserService</text>
</g>
<!-- UserService&#45;&gt;AuthModule -->
<g id="edge7" class="edge">
<title>UserService&#45;&gt;AuthModule</title>
<path fill="none" stroke="#000000" d="M82,-122.2843C82,-143.3211 82,-175 82,-175 82,-175 379.2553,-175 379.2553,-175"/>
<polygon fill="#000000" stroke="#000000" points="379.2553,-178.5001 389.2553,-175 379.2553,-171.5001 379.2553,-178.5001"/>
</g>
</g>
</svg>
