<?xml version="1.0" encoding="UTF-8" standalone="no"?>
<!DOCTYPE svg PUBLIC "-//W3C//DTD SVG 1.1//EN"
 "http://www.w3.org/Graphics/SVG/1.1/DTD/svg11.dtd">
<!-- Generated by graphviz version 2.47.3 (20210619.1520)
 -->
<!-- Title: dependencies Pages: 1 -->
<svg width="849pt" height="247pt"
 viewBox="0.00 0.00 849.00 246.80" xmlns="http://www.w3.org/2000/svg" xmlns:xlink="http://www.w3.org/1999/xlink">
<g id="graph0" class="graph" transform="scale(1 1) rotate(0) translate(4 242.8)">
<title>dependencies</title>
<polygon fill="white" stroke="transparent" points="-4,4 -4,-242.8 845,-242.8 845,4 -4,4"/>
<text text-anchor="middle" x="420.5" y="-8.2" font-family="sans-serif" font-size="14.00">dependencies</text>
<g id="clust1" class="cluster">
<title>cluster_AuthModule</title>
<polygon fill="none" stroke="black" stroke-dasharray="1,5" points="8,-32.8 8,-230.8 833,-230.8 833,-32.8 8,-32.8"/>
</g>
<g id="clust6" class="cluster">
<title>cluster_AuthModule_providers</title>
<polygon fill="none" stroke="black" points="126,-40.8 126,-92.8 825,-92.8 825,-40.8 126,-40.8"/>
</g>
<g id="clust3" class="cluster">
<title>cluster_AuthModule_imports</title>
<polygon fill="none" stroke="black" points="16,-40.8 16,-92.8 118,-92.8 118,-40.8 16,-40.8"/>
</g>
<g id="clust4" class="cluster">
<title>cluster_AuthModule_exports</title>
<polygon fill="none" stroke="black" points="350,-170.8 350,-222.8 456,-222.8 456,-170.8 350,-170.8"/>
</g>
<!-- UserModule -->
<g id="node1" class="node">
<title>UserModule</title>
<polygon fill="#8dd3c7" stroke="black" points="109.98,-84.8 106.98,-88.8 85.98,-88.8 82.98,-84.8 24.02,-84.8 24.02,-48.8 109.98,-48.8 109.98,-84.8"/>
<text text-anchor="middle" x="67" y="-62.6" font-family="Times,serif" font-size="14.00">UserModule</text>
</g>
<!-- AuthModule -->
<g id="node2" class="node">
<title>AuthModule</title>
<polygon fill="#8dd3c7" stroke="black" points="446.55,-149.8 443.55,-153.8 422.55,-153.8 419.55,-149.8 359.45,-149.8 359.45,-113.8 446.55,-113.8 446.55,-149.8"/>
<text text-anchor="middle" x="403" y="-127.6" font-family="Times,serif" font-size="14.00">AuthModule</text>
</g>
<!-- UserModule&#45;&gt;AuthModule -->
<g id="edge1" class="edge">
<title>UserModule&#45;&gt;AuthModule</title>
<path fill="none" stroke="black" d="M67,-85.08C67,-106.12 67,-137.8 67,-137.8 67,-137.8 349.42,-137.8 349.42,-137.8"/>
<polygon fill="black" stroke="black" points="349.42,-141.3 359.42,-137.8 349.42,-134.3 349.42,-141.3"/>
</g>
<!-- AuthService  -->
<g id="node3" class="node">
<title>AuthService </title>
<polygon fill="#fb8072" stroke="black" points="447.98,-214.8 358.02,-214.8 358.02,-178.8 447.98,-178.8 447.98,-214.8"/>
<text text-anchor="middle" x="403" y="-192.6" font-family="Times,serif" font-size="14.00">AuthService </text>
</g>
<!-- AuthModule&#45;&gt;AuthService  -->
<g id="edge2" class="edge">
<title>AuthModule&#45;&gt;AuthService </title>
<path fill="none" stroke="black" stroke-dasharray="5,2" d="M403,-149.91C403,-149.91 403,-168.79 403,-168.79"/>
<polygon fill="black" stroke="black" points="399.5,-168.79 403,-178.79 406.5,-168.79 399.5,-168.79"/>
</g>
<!-- AuthService -->
<g id="node4" class="node">
<title>AuthService</title>
<ellipse fill="#fdb462" stroke="black" cx="758" cy="-66.8" rx="59.11" ry="18"/>
<text text-anchor="middle" x="758" y="-62.6" font-family="Times,serif" font-size="14.00">AuthService</text>
</g>
<!-- AuthService&#45;&gt;AuthModule -->
<g id="edge3" class="edge">
<title>AuthService&#45;&gt;AuthModule</title>
<path fill="none" stroke="black" d="M758,-85.08C758,-106.12 758,-137.8 758,-137.8 758,-137.8 456.89,-137.8 456.89,-137.8"/>
<polygon fill="black" stroke="black" points="456.89,-134.3 446.89,-137.8 456.89,-141.3 456.89,-134.3"/>
</g>
<!-- CryptoService -->
<g id="node5" class="node">
<title>CryptoService</title>
<ellipse fill="#fdb462" stroke="black" cx="614" cy="-66.8" rx="66.63" ry="18"/>
<text text-anchor="middle" x="614" y="-62.6" font-family="Times,serif" font-size="14.00">CryptoService</text>
</g>
<!-- CryptoService&#45;&gt;AuthModule -->
<g id="edge4" class="edge">
<title>CryptoService&#45;&gt;AuthModule</title>
<path fill="none" stroke="black" d="M614,-84.82C614,-102.17 614,-125.8 614,-125.8 614,-125.8 456.72,-125.8 456.72,-125.8"/>
<polygon fill="black" stroke="black" points="456.72,-122.3 446.72,-125.8 456.72,-129.3 456.72,-122.3"/>
</g>
<!-- JwtStrategy -->
<g id="node6" class="node">
<title>JwtStrategy</title>
<ellipse fill="#fdb462" stroke="black" cx="473" cy="-66.8" rx="56.76" ry="18"/>
<text text-anchor="middle" x="473" y="-62.6" font-family="Times,serif" font-size="14.00">JwtStrategy</text>
</g>
<!-- JwtStrategy&#45;&gt;AuthModule -->
<g id="edge5" class="edge">
<title>JwtStrategy&#45;&gt;AuthModule</title>
<path fill="none" stroke="black" d="M431.57,-79.33C431.57,-79.33 431.57,-103.65 431.57,-103.65"/>
<polygon fill="black" stroke="black" points="428.07,-103.65 431.57,-113.65 435.07,-103.65 428.07,-103.65"/>
</g>
<!-- LocalStrategy -->
<g id="node7" class="node">
<title>LocalStrategy</title>
<ellipse fill="#fdb462" stroke="black" cx="333" cy="-66.8" rx="65.41" ry="18"/>
<text text-anchor="middle" x="333" y="-62.6" font-family="Times,serif" font-size="14.00">LocalStrategy</text>
</g>
<!-- LocalStrategy&#45;&gt;AuthModule -->
<g id="edge6" class="edge">
<title>LocalStrategy&#45;&gt;AuthModule</title>
<path fill="none" stroke="black" d="M378.71,-79.64C378.71,-79.64 378.71,-103.32 378.71,-103.32"/>
<polygon fill="black" stroke="black" points="375.21,-103.32 378.71,-113.32 382.21,-103.32 375.21,-103.32"/>
</g>
<!-- UserService -->
<g id="node8" class="node">
<title>UserService</title>
<ellipse fill="#fdb462" stroke="black" cx="192" cy="-66.8" rx="58.44" ry="18"/>
<text text-anchor="middle" x="192" y="-62.6" font-family="Times,serif" font-size="14.00">UserService</text>
</g>
<!-- UserService&#45;&gt;AuthModule -->
<g id="edge7" class="edge">
<title>UserService&#45;&gt;AuthModule</title>
<path fill="none" stroke="black" d="M192,-84.82C192,-102.17 192,-125.8 192,-125.8 192,-125.8 349.28,-125.8 349.28,-125.8"/>
<polygon fill="black" stroke="black" points="349.28,-129.3 359.28,-125.8 349.28,-122.3 349.28,-129.3"/>
</g>
</g>
</svg>
