<?xml version="1.0" encoding="UTF-8" standalone="no"?>
<!DOCTYPE svg PUBLIC "-//W3C//DTD SVG 1.1//EN"
 "http://www.w3.org/Graphics/SVG/1.1/DTD/svg11.dtd">
<!-- Generated by graphviz version 2.47.3 (20210619.1520)
 -->
<!-- Title: dependencies Pages: 1 -->
<svg width="531pt" height="174pt"
 viewBox="0.00 0.00 531.00 173.80" xmlns="http://www.w3.org/2000/svg" xmlns:xlink="http://www.w3.org/1999/xlink">
<g id="graph0" class="graph" transform="scale(1 1) rotate(0) translate(4 169.8)">
<title>dependencies</title>
<polygon fill="white" stroke="transparent" points="-4,4 -4,-169.8 527,-169.8 527,4 -4,4"/>
<text text-anchor="middle" x="261.5" y="-8.2" font-family="sans-serif" font-size="14.00">dependencies</text>
<g id="clust1" class="cluster">
<title>cluster_AppModule</title>
<polygon fill="none" stroke="black" stroke-dasharray="1,5" points="8,-32.8 8,-157.8 515,-157.8 515,-32.8 8,-32.8"/>
</g>
<g id="clust6" class="cluster">
<title>cluster_AppModule_providers</title>
<polygon fill="none" stroke="black" points="359,-40.8 359,-92.8 507,-92.8 507,-40.8 359,-40.8"/>
</g>
<g id="clust3" class="cluster">
<title>cluster_AppModule_imports</title>
<polygon fill="none" stroke="black" points="16,-40.8 16,-92.8 351,-92.8 351,-40.8 16,-40.8"/>
</g>
<!-- AuthModule -->
<g id="node1" class="node">
<title>AuthModule</title>
<polygon fill="#8dd3c7" stroke="black" points="342.55,-84.8 339.55,-88.8 318.55,-88.8 315.55,-84.8 255.45,-84.8 255.45,-48.8 342.55,-48.8 342.55,-84.8"/>
<text text-anchor="middle" x="299" y="-62.6" font-family="Times,serif" font-size="14.00">AuthModule</text>
</g>
<!-- AppModule -->
<g id="node4" class="node">
<title>AppModule</title>
<polygon fill="#8dd3c7" stroke="black" points="282.66,-149.8 279.66,-153.8 258.66,-153.8 255.66,-149.8 199.34,-149.8 199.34,-113.8 282.66,-113.8 282.66,-149.8"/>
<text text-anchor="middle" x="241" y="-127.6" font-family="Times,serif" font-size="14.00">AppModule</text>
</g>
<!-- AuthModule&#45;&gt;AppModule -->
<g id="edge1" class="edge">
<title>AuthModule&#45;&gt;AppModule</title>
<path fill="none" stroke="black" d="M269.03,-84.91C269.03,-84.91 269.03,-103.79 269.03,-103.79"/>
<polygon fill="black" stroke="black" points="265.53,-103.79 269.03,-113.79 272.53,-103.79 265.53,-103.79"/>
</g>
<!-- RoutinesModule -->
<g id="node2" class="node">
<title>RoutinesModule</title>
<polygon fill="#8dd3c7" stroke="black" points="237.83,-84.8 234.83,-88.8 213.83,-88.8 210.83,-84.8 128.17,-84.8 128.17,-48.8 237.83,-48.8 237.83,-84.8"/>
<text text-anchor="middle" x="183" y="-62.6" font-family="Times,serif" font-size="14.00">RoutinesModule</text>
</g>
<!-- RoutinesModule&#45;&gt;AppModule -->
<g id="edge2" class="edge">
<title>RoutinesModule&#45;&gt;AppModule</title>
<path fill="none" stroke="black" d="M218.42,-84.91C218.42,-84.91 218.42,-103.79 218.42,-103.79"/>
<polygon fill="black" stroke="black" points="214.92,-103.79 218.42,-113.79 221.92,-103.79 214.92,-103.79"/>
</g>
<!-- UserModule -->
<g id="node3" class="node">
<title>UserModule</title>
<polygon fill="#8dd3c7" stroke="black" points="109.98,-84.8 106.98,-88.8 85.98,-88.8 82.98,-84.8 24.02,-84.8 24.02,-48.8 109.98,-48.8 109.98,-84.8"/>
<text text-anchor="middle" x="67" y="-62.6" font-family="Times,serif" font-size="14.00">UserModule</text>
</g>
<!-- UserModule&#45;&gt;AppModule -->
<g id="edge3" class="edge">
<title>UserModule&#45;&gt;AppModule</title>
<path fill="none" stroke="black" d="M67,-84.91C67,-104.14 67,-131.8 67,-131.8 67,-131.8 189.32,-131.8 189.32,-131.8"/>
<polygon fill="black" stroke="black" points="189.32,-135.3 199.32,-131.8 189.32,-128.3 189.32,-135.3"/>
</g>
<!-- HealthService -->
<g id="node5" class="node">
<title>HealthService</title>
<ellipse fill="#fdb462" stroke="black" cx="433" cy="-66.8" rx="65.97" ry="18"/>
<text text-anchor="middle" x="433" y="-62.6" font-family="Times,serif" font-size="14.00">HealthService</text>
</g>
<!-- HealthService&#45;&gt;AppModule -->
<g id="edge4" class="edge">
<title>HealthService&#45;&gt;AppModule</title>
<path fill="none" stroke="black" d="M433,-84.91C433,-104.14 433,-131.8 433,-131.8 433,-131.8 292.66,-131.8 292.66,-131.8"/>
<polygon fill="black" stroke="black" points="292.66,-128.3 282.66,-131.8 292.66,-135.3 292.66,-128.3"/>
</g>
</g>
</svg>
