<?xml version="1.0" encoding="UTF-8" standalone="no"?>
<!DOCTYPE svg PUBLIC "-//W3C//DTD SVG 1.1//EN"
 "http://www.w3.org/Graphics/SVG/1.1/DTD/svg11.dtd">
<!-- Generated by graphviz version 2.40.1 (20161225.0304)
 -->
<!-- Title: dependencies Pages: 1 -->
<svg width="1684pt" height="287pt"
 viewBox="0.00 0.00 1684.00 287.00" xmlns="http://www.w3.org/2000/svg" xmlns:xlink="http://www.w3.org/1999/xlink">
<g id="graph0" class="graph" transform="scale(1 1) rotate(0) translate(4 283)">
<title>dependencies</title>
<polygon fill="#ffffff" stroke="transparent" points="-4,4 -4,-283 1680,-283 1680,4 -4,4"/>
<text text-anchor="start" x="817.0091" y="-42.4" font-family="sans-serif" font-weight="bold" font-size="14.00" fill="#000000">Legend</text>
<polygon fill="#ffffb3" stroke="transparent" points="604,-10 604,-30 624,-30 624,-10 604,-10"/>
<text text-anchor="start" x="627.629" y="-15.4" font-family="sans-serif" font-size="14.00" fill="#000000"> &#160;Declarations</text>
<polygon fill="#8dd3c7" stroke="transparent" points="717,-10 717,-30 737,-30 737,-10 717,-10"/>
<text text-anchor="start" x="740.7251" y="-15.4" font-family="sans-serif" font-size="14.00" fill="#000000"> &#160;Module</text>
<polygon fill="#80b1d3" stroke="transparent" points="803,-10 803,-30 823,-30 823,-10 803,-10"/>
<text text-anchor="start" x="826.7812" y="-15.4" font-family="sans-serif" font-size="14.00" fill="#000000"> &#160;Bootstrap</text>
<polygon fill="#fdb462" stroke="transparent" points="900,-10 900,-30 920,-30 920,-10 900,-10"/>
<text text-anchor="start" x="923.6732" y="-15.4" font-family="sans-serif" font-size="14.00" fill="#000000"> &#160;Providers</text>
<polygon fill="#fb8072" stroke="transparent" points="996,-10 996,-30 1016,-30 1016,-10 996,-10"/>
<text text-anchor="start" x="1019.7258" y="-15.4" font-family="sans-serif" font-size="14.00" fill="#000000"> &#160;Exports</text>
<g id="clust1" class="cluster">
<title>cluster_AppModule</title>
<polygon fill="none" stroke="#000000" stroke-dasharray="1,5" points="845,-70 845,-271 1133,-271 1133,-70 845,-70"/>
</g>
<g id="clust3" class="cluster">
<title>cluster_AppModule_imports</title>
<polygon fill="none" stroke="#000000" points="1009,-78 1009,-206 1113,-206 1113,-78 1009,-78"/>
</g>
<g id="clust6" class="cluster">
<title>cluster_AppModule_providers</title>
<polygon fill="none" stroke="#000000" points="853,-154 853,-206 1001,-206 1001,-154 853,-154"/>
</g>
<g id="clust7" class="cluster">
<title>cluster_AuthModule</title>
<polygon fill="none" stroke="#000000" stroke-dasharray="1,5" points="8,-70 8,-138 837,-138 837,-70 8,-70"/>
</g>
<g id="clust10" class="cluster">
<title>cluster_AuthModule_exports</title>
<polygon fill="none" stroke="#000000" points="723,-78 723,-130 829,-130 829,-78 723,-78"/>
</g>
<g id="clust12" class="cluster">
<title>cluster_AuthModule_providers</title>
<polygon fill="none" stroke="#000000" points="16,-78 16,-130 715,-130 715,-78 16,-78"/>
</g>
<g id="clust13" class="cluster">
<title>cluster_UserModule</title>
<polygon fill="none" stroke="#000000" stroke-dasharray="1,5" points="1141,-146 1141,-214 1668,-214 1668,-146 1141,-146"/>
</g>
<g id="clust16" class="cluster">
<title>cluster_UserModule_exports</title>
<polygon fill="none" stroke="#000000" points="1149,-154 1149,-206 1660,-206 1660,-154 1149,-154"/>
</g>
<!-- AuthModule -->
<g id="node1" class="node">
<title>AuthModule</title>
<polygon fill="#8dd3c7" stroke="#000000" points="1104.5482,-198 1101.5482,-202 1080.5482,-202 1077.5482,-198 1017.4518,-198 1017.4518,-162 1104.5482,-162 1104.5482,-198"/>
<text text-anchor="middle" x="1061" y="-175.8" font-family="Times,serif" font-size="14.00" fill="#000000">AuthModule</text>
</g>
<!-- AppModule -->
<g id="node3" class="node">
<title>AppModule</title>
<polygon fill="#8dd3c7" stroke="#000000" points="1102.6571,-263 1099.6571,-267 1078.6571,-267 1075.6571,-263 1019.3429,-263 1019.3429,-227 1102.6571,-227 1102.6571,-263"/>
<text text-anchor="middle" x="1061" y="-240.8" font-family="Times,serif" font-size="14.00" fill="#000000">AppModule</text>
</g>
<!-- AuthModule&#45;&gt;AppModule -->
<g id="edge1" class="edge">
<title>AuthModule&#45;&gt;AppModule</title>
<path fill="none" stroke="#000000" d="M1061,-198.1061C1061,-198.1061 1061,-216.991 1061,-216.991"/>
<polygon fill="#000000" stroke="#000000" points="1057.5001,-216.9909 1061,-226.991 1064.5001,-216.991 1057.5001,-216.9909"/>
</g>
<!-- AuthService  -->
<g id="node5" class="node">
<title>AuthService </title>
<polygon fill="#fb8072" stroke="#000000" points="820.9761,-122 731.0239,-122 731.0239,-86 820.9761,-86 820.9761,-122"/>
<text text-anchor="middle" x="776" y="-99.8" font-family="Times,serif" font-size="14.00" fill="#000000">AuthService </text>
</g>
<!-- AuthModule&#45;&gt;AuthService  -->
<g id="edge5" class="edge">
<title>AuthModule&#45;&gt;AuthService </title>
<path fill="none" stroke="#000000" stroke-dasharray="5,2" d="M1017.1772,-180C1012.308,-180 1009.0618,-180 1009.0618,-180 1009.0618,-180 1009.0618,-98 1009.0618,-98 1009.0618,-98 830.9367,-98 830.9367,-98"/>
<polygon fill="#000000" stroke="#000000" points="830.9367,-94.5001 820.9367,-98 830.9366,-101.5001 830.9367,-94.5001"/>
</g>
<!-- UserModule -->
<g id="node2" class="node">
<title>UserModule</title>
<polygon fill="#8dd3c7" stroke="#000000" points="1104.9762,-122 1101.9762,-126 1080.9762,-126 1077.9762,-122 1019.0238,-122 1019.0238,-86 1104.9762,-86 1104.9762,-122"/>
<text text-anchor="middle" x="1062" y="-99.8" font-family="Times,serif" font-size="14.00" fill="#000000">UserModule</text>
</g>
<!-- UserModule&#45;&gt;AuthModule -->
<g id="edge4" class="edge">
<title>UserModule&#45;&gt;AuthModule</title>
<path fill="none" stroke="#000000" d="M1092.5218,-122.0109C1092.5218,-122.0109 1092.5218,-151.855 1092.5218,-151.855"/>
<polygon fill="#000000" stroke="#000000" points="1089.0219,-151.8549 1092.5218,-161.855 1096.0219,-151.855 1089.0219,-151.8549"/>
</g>
<!-- UserModule&#45;&gt;AppModule -->
<g id="edge2" class="edge">
<title>UserModule&#45;&gt;AppModule</title>
<path fill="none" stroke="#000000" d="M1018.8995,-110C1008.7886,-110 1000.8972,-110 1000.8972,-110 1000.8972,-110 1000.8972,-239 1000.8972,-239 1000.8972,-239 1009.2566,-239 1009.2566,-239"/>
<polygon fill="#000000" stroke="#000000" points="1009.2566,-242.5001 1019.2566,-239 1009.2565,-235.5001 1009.2566,-242.5001"/>
</g>
<!-- UserService  -->
<g id="node11" class="node">
<title>UserService </title>
<polygon fill="#fb8072" stroke="#000000" points="1651.9041,-198 1564.0959,-198 1564.0959,-162 1651.9041,-162 1651.9041,-198"/>
<text text-anchor="middle" x="1608" y="-175.8" font-family="Times,serif" font-size="14.00" fill="#000000">UserService </text>
</g>
<!-- UserModule&#45;&gt;UserService  -->
<g id="edge11" class="edge">
<title>UserModule&#45;&gt;UserService </title>
<path fill="none" stroke="#000000" stroke-dasharray="5,2" d="M1105.3001,-98C1234.4407,-98 1608,-98 1608,-98 1608,-98 1608,-151.8015 1608,-151.8015"/>
<polygon fill="#000000" stroke="#000000" points="1604.5001,-151.8015 1608,-161.8015 1611.5001,-151.8016 1604.5001,-151.8015"/>
</g>
<!-- { provide: UserRepository, useClass: UserInMemoryRepository }  -->
<g id="node12" class="node">
<title>{ provide: UserRepository, useClass: UserInMemoryRepository } </title>
<polygon fill="#fb8072" stroke="#000000" points="1546.5734,-198 1157.4266,-198 1157.4266,-162 1546.5734,-162 1546.5734,-198"/>
<text text-anchor="middle" x="1352" y="-175.8" font-family="Times,serif" font-size="14.00" fill="#000000">{ provide: UserRepository, useClass: UserInMemoryRepository } </text>
</g>
<!-- UserModule&#45;&gt;{ provide: UserRepository, useClass: UserInMemoryRepository }  -->
<g id="edge12" class="edge">
<title>UserModule&#45;&gt;{ provide: UserRepository, useClass: UserInMemoryRepository } </title>
<path fill="none" stroke="#000000" stroke-dasharray="5,2" d="M1105.1028,-110C1185.8878,-110 1352,-110 1352,-110 1352,-110 1352,-151.9733 1352,-151.9733"/>
<polygon fill="#000000" stroke="#000000" points="1348.5001,-151.9732 1352,-161.9733 1355.5001,-151.9733 1348.5001,-151.9732"/>
</g>
<!-- HealthService -->
<g id="node4" class="node">
<title>HealthService</title>
<ellipse fill="#fdb462" stroke="#000000" cx="927" cy="-180" rx="65.9658" ry="18"/>
<text text-anchor="middle" x="927" y="-175.8" font-family="Times,serif" font-size="14.00" fill="#000000">HealthService</text>
</g>
<!-- HealthService&#45;&gt;AppModule -->
<g id="edge3" class="edge">
<title>HealthService&#45;&gt;AppModule</title>
<path fill="none" stroke="#000000" d="M927,-198.2843C927,-219.3211 927,-251 927,-251 927,-251 1009.3361,-251 1009.3361,-251"/>
<polygon fill="#000000" stroke="#000000" points="1009.3361,-254.5001 1019.3361,-251 1009.3361,-247.5001 1009.3361,-254.5001"/>
</g>
<!-- AuthService -->
<g id="node6" class="node">
<title>AuthService</title>
<ellipse fill="#fdb462" stroke="#000000" cx="648" cy="-104" rx="59.1083" ry="18"/>
<text text-anchor="middle" x="648" y="-99.8" font-family="Times,serif" font-size="14.00" fill="#000000">AuthService</text>
</g>
<!-- AuthService&#45;&gt;AuthModule -->
<g id="edge6" class="edge">
<title>AuthService&#45;&gt;AuthModule</title>
<path fill="none" stroke="#000000" d="M648,-122.1686C648,-126.0459 648,-129 648,-129 648,-129 1080.2702,-129 1080.2702,-129 1080.2702,-129 1080.2702,-151.8757 1080.2702,-151.8757"/>
<polygon fill="#000000" stroke="#000000" points="1076.7703,-151.8757 1080.2702,-161.8757 1083.7703,-151.8757 1076.7703,-151.8757"/>
</g>
<!-- CryptoService -->
<g id="node7" class="node">
<title>CryptoService</title>
<ellipse fill="#fdb462" stroke="#000000" cx="504" cy="-104" rx="66.6325" ry="18"/>
<text text-anchor="middle" x="504" y="-99.8" font-family="Times,serif" font-size="14.00" fill="#000000">CryptoService</text>
</g>
<!-- CryptoService&#45;&gt;AuthModule -->
<g id="edge7" class="edge">
<title>CryptoService&#45;&gt;AuthModule</title>
<path fill="none" stroke="#000000" d="M504,-122.2434C504,-129.4297 504,-136 504,-136 504,-136 1068.0185,-136 1068.0185,-136 1068.0185,-136 1068.0185,-151.8495 1068.0185,-151.8495"/>
<polygon fill="#000000" stroke="#000000" points="1064.5186,-151.8494 1068.0185,-161.8495 1071.5186,-151.8495 1064.5186,-151.8494"/>
</g>
<!-- JwtStrategy -->
<g id="node8" class="node">
<title>JwtStrategy</title>
<ellipse fill="#fdb462" stroke="#000000" cx="363" cy="-104" rx="56.7561" ry="18"/>
<text text-anchor="middle" x="363" y="-99.8" font-family="Times,serif" font-size="14.00" fill="#000000">JwtStrategy</text>
</g>
<!-- JwtStrategy&#45;&gt;AuthModule -->
<g id="edge8" class="edge">
<title>JwtStrategy&#45;&gt;AuthModule</title>
<path fill="none" stroke="#000000" d="M363,-122.1097C363,-131.897 363,-142 363,-142 363,-142 1055.7669,-142 1055.7669,-142 1055.7669,-142 1055.7669,-151.8903 1055.7669,-151.8903"/>
<polygon fill="#000000" stroke="#000000" points="1052.267,-151.8903 1055.7669,-161.8903 1059.267,-151.8904 1052.267,-151.8903"/>
</g>
<!-- LocalStrategy -->
<g id="node9" class="node">
<title>LocalStrategy</title>
<ellipse fill="#fdb462" stroke="#000000" cx="223" cy="-104" rx="65.4053" ry="18"/>
<text text-anchor="middle" x="223" y="-99.8" font-family="Times,serif" font-size="14.00" fill="#000000">LocalStrategy</text>
</g>
<!-- LocalStrategy&#45;&gt;AuthModule -->
<g id="edge9" class="edge">
<title>LocalStrategy&#45;&gt;AuthModule</title>
<path fill="none" stroke="#000000" d="M223,-122.0439C223,-134.5633 223,-149 223,-149 223,-149 1043.5152,-149 1043.5152,-149 1043.5152,-149 1043.5152,-151.9672 1043.5152,-151.9672"/>
<polygon fill="#000000" stroke="#000000" points="1040.0153,-151.9671 1043.5152,-161.9672 1047.0153,-151.9672 1040.0153,-151.9671"/>
</g>
<!-- UserService -->
<g id="node10" class="node">
<title>UserService</title>
<ellipse fill="#fdb462" stroke="#000000" cx="82" cy="-104" rx="58.4415" ry="18"/>
<text text-anchor="middle" x="82" y="-99.8" font-family="Times,serif" font-size="14.00" fill="#000000">UserService</text>
</g>
<!-- UserService&#45;&gt;AuthModule -->
<g id="edge10" class="edge">
<title>UserService&#45;&gt;AuthModule</title>
<path fill="none" stroke="#000000" d="M82,-122.1871C82,-137.1824 82,-156 82,-156 82,-156 1031.2636,-156 1031.2636,-156 1031.2636,-156 1031.2636,-156.581 1031.2636,-156.581"/>
<polygon fill="#000000" stroke="#000000" points="1027.7637,-151.8097 1031.2636,-161.8097 1034.7637,-151.8098 1027.7637,-151.8097"/>
</g>
<!-- UserService&#45;&gt;UserModule -->
<g id="edge13" class="edge">
<title>UserService&#45;&gt;UserModule</title>
<path fill="none" stroke="#000000" d="M82,-86C82,-77 82,-68 82,-68 82,-68 1062,-68 1062,-68 1062,-68 1062,-75.5782 1062,-75.5782"/>
<polygon fill="#000000" stroke="#000000" points="1058.5001,-75.5781 1062,-85.5782 1065.5001,-75.5782 1058.5001,-75.5781"/>
</g>
</g>
</svg>
